<svg id="Layer_1" data-name="Layer 1" xmlns="http://www.w3.org/2000/svg" viewBox="0 0 2951.56 2245.12"><defs><style>.cls-1{fill:#99a5bf;}.cls-2{opacity:0.5;}.cls-3{fill:#fff;}.cls-4{fill:#6d78a5;}.cls-5{fill:#bdcef4;}.cls-6,.cls-9{fill:#12006d;}.cls-7{fill:#ff9797;}.cls-8{fill:#db5353;}.cls-9{stroke:#12006d;stroke-miterlimit:10;stroke-width:25px;}</style></defs><path class="cls-1" d="M2529.71,3186.51h351.15c36.72,0,48-111-55-123.12l21.28-306.76-335.64,107Z" transform="translate(-499.7 -955.83)"/><g class="cls-2"><polygon class="cls-3" points="2314.12 1811.41 2297.25 2107.55 2326.13 2107.55 2347.41 1800.8 2314.12 1811.41"/></g><path class="cls-4" d="M2906.62,3135.45c-11.7,7-33.66,7.27-79.44,7.27-94.13,0-115.44-17.82-112.82-34.64,3.47-22.35,54.87-39.73,54.87-39.73L2786,2844.49l-52.1-51.76-222.43,70.91,18.24,322.87h351.15C2898,3186.51,2909.55,3162.41,2906.62,3135.45Z" transform="translate(-499.7 -955.83)"/><path class="cls-3" d="M2529.71,3186.51h351.15c36.72,0,48-111-55-123.12l-79.65,7s-128.49,15.86-224.56-27.11Z" transform="translate(-499.7 -955.83)"/><path class="cls-5" d="M2906.62,3135.45c-11.7,7-33.66,7.27-79.44,7.27-94.13,0-115.44-17.82-112.82-34.64,3.47-22.35,54.86-39.72,54.87-39.73l-23.05,2s-128.49,15.86-224.56-27.11l8.09,143.24h351.15C2898,3186.51,2909.55,3162.41,2906.62,3135.45Z" transform="translate(-499.7 -955.83)"/><path class="cls-6" d="M2880.86,3200.8H2516.21l-19.63-347.4,366.25-116.78L2841,3051.4c58.53,12.4,82.65,56.72,80.24,97.56C2919.43,3179.48,2902.83,3200.8,2880.86,3200.8Zm-337.64-28.57h337.64c4.33,0,10.93-9.49,11.84-24.95,1.66-28.23-15.3-63.42-68.55-69.71l-13.52-1.59,20.77-299.35-305,97.26Z" transform="translate(-499.7 -955.83)"/><path class="cls-6" d="M2745.86,3066.82l78.72-17.67c21.29-3.67,24.14,28.36,2.5,28.47l-80.59-3.68c-4.12-.15-4.65-6.27-.63-7.12Z" transform="translate(-499.7 -955.83)"/><path class="cls-6" d="M2834.58,3113.1c14.93,21.19,23.42,53.54,13.57,78.41-7.33,13.71-28.5,7.1-27-8.15.1-6,3.55-10.86,5.26-16.59a73.57,73.57,0,0,0,3.58-15.92,96.18,96.18,0,0,0-1.86-34.79c-1-3.69,4.28-6.08,6.41-3Z" transform="translate(-499.7 -955.83)"/><path class="cls-6" d="M2763.31,3113.1c14.93,21.19,23.43,53.55,13.57,78.41-7.33,13.71-28.5,7.1-27-8.15.1-6,3.54-10.86,5.25-16.59a73,73,0,0,0,3.58-15.92,96.18,96.18,0,0,0-1.86-34.79c-1-3.7,4.28-6.08,6.41-3Z" transform="translate(-499.7 -955.83)"/><path class="cls-1" d="M1234,3186.51c-231.05,0-368.11-151.25-388.84-354.79-28.88-283.61,167.35-697.92-65.49-725.38-77.4-9.13-141.55,21.88-206.91-7.91-44.58-20.32-73-78.42-51.38-144.41,49.86-152,313.75-210.38,473.06-76,186.34,157.19,139.84,459.38,96.67,642.09-36.49,154.44-51.22,301.13-1.21,368.47,59.9,80.67,167.82,50.17,167.82,50.17Z" transform="translate(-499.7 -955.83)"/><g class="cls-2"><path class="cls-3" d="M1089.88,2888.57c-50-67.34-35.28-214,1.21-368.47,43.17-182.71,89.67-484.9-96.67-642.09-159.31-134.37-423.2-76-473.06,76-12.35,37.65-8.37,72.72,5.58,99.68,6-146.53,140.82-226.3,331-191.5,212,38.81,247.05,323,216.16,519.27-30.1,191.23-114.31,391.58-28,526,44.28,68.92,134,92.51,206.28,86.9l5.32-55.58S1149.78,2969.24,1089.88,2888.57Z" transform="translate(-499.7 -955.83)"/></g><path class="cls-4" d="M834.65,2083.83c69.78,28.73,96.26,110.75,85.58,259.33-15.2,211.6-92.42,440.22-1.82,628.11,44.88,93.07,147.62,174.19,319.05,178.87L1247.72,3043c-65.47,17.09-216.23,5.88-283.1-120.33-86.34-162.95-8.75-449.1,11-644.89,21-208.49-58.38-293.31-204.31-266.39-90.54,16.7-174.15,24.34-224.57,2.49C577.43,2139.63,735.5,2043,834.65,2083.83Z" transform="translate(-499.7 -955.83)"/><path class="cls-3" d="M1071.33,2215.17c26.85-4.39,45.07-25.76,56.21-44.69-8.93-111.27-45-218.1-133.12-292.47-159.31-134.37-423.2-76-473.06,76-21.64,66,6.8,124.09,51.38,144.41,65.36,29.79,129.51-1.22,206.91,7.91,71.84,8.47,102.81,53.81,112.17,120.75,38.11,15.28,51.38-34.53,76.45-43.84C1000.19,2171.39,1021.17,2223.38,1071.33,2215.17Z" transform="translate(-499.7 -955.83)"/><path class="cls-5" d="M834.65,2083.83c48.72,20.07,76.31,66.15,84.9,142.71,19.05-9.64,30.91-36.67,48.72-43.29a27.13,27.13,0,0,1,9.35-1.74c-10.28-138-85.42-192.48-206.36-170.17-90.54,16.7-174.15,24.34-224.57,2.49C577.43,2139.63,735.5,2043,834.65,2083.83Z" transform="translate(-499.7 -955.83)"/><path class="cls-6" d="M1247,3200.8h-13c-113.84,0-211.77-36.33-283.2-105.06-67.53-65-109-155.78-119.85-262.57-10.5-103.08,7.78-220.38,25.46-333.82,22.28-142.91,43.33-277.9-4.38-340.74-16.47-21.69-40.69-34.15-74-38.08-29.78-3.5-58-.72-85.36,2-42.89,4.24-83.39,8.25-125.8-11.08-47.29-21.56-84-85.61-59-161.87,22.56-68.75,85.68-122.42,173.19-147.26,113.45-32.22,237.09-7.38,322.66,64.79,85,71.71,131.93,179.92,139.46,321.64,5.07,95.28-7.39,204.74-38.09,334.66-42.4,179.45-43.66,302.79-3.65,356.67,53.17,71.59,148.46,46.05,152.49,44.92l20-5.58-2,20.7ZM748.4,2090.29a280.71,280.71,0,0,1,32.92,1.86c40.89,4.82,72.33,21.37,93.44,49.18,55.06,72.51,34.12,206.86,9.87,362.43-17.4,111.64-35.4,227.1-25.28,326.52,21,206.54,159.12,336.47,361.66,341.78l20.63-215.56c-36.34,5.3-113.77,7.21-163.23-59.4-45.85-61.74-46.26-189.68-1.22-380.28,73-308.76,42.86-514.14-92-627.88-78.39-66.14-192-88.8-296.43-59.15-77.07,21.87-134.58,70-153.83,128.68-19.84,60.47,7.72,110.55,43.73,127,35.39,16.13,70.49,12.66,111.12,8.64C708.71,2092.2,728.05,2090.29,748.4,2090.29Z" transform="translate(-499.7 -955.83)"/><path class="cls-1" d="M2867.78,2385.12c59.59,297.33-19.45,650.6-338.07,801.39H1234s-135.29-463.32,31.62-890.17c152.13-389,678.57-392.18,678.57-392.18Z" transform="translate(-499.7 -955.83)"/><path class="cls-4" d="M1635.21,3063.39c-64.29,73.69-124.76,43.05-185.37,16.35,83.3-105.1,93.6-178.62,198.22-226.43,67.19-30.71,153.38-32.53,168.88,16.72C1831.89,2917.5,1768.08,3018.41,1635.21,3063.39Z" transform="translate(-499.7 -955.83)"/><g class="cls-2"><path class="cls-3" d="M1629.51,3060c197.31-62.63,214.94-247.47,199.74-403.74,0,0,77.22,114.92,14,274.23C1793,3057.13,1629.51,3060,1629.51,3060Z" transform="translate(-499.7 -955.83)"/></g><path class="cls-4" d="M1918.41,2538.17c-13.46,133,65,332,181.72,331.86,161.57-.17,107.63-237.14,107.63-237.14Z" transform="translate(-499.7 -955.83)"/><g class="cls-2"><path class="cls-3" d="M1989.77,1927.89l-45.59-23.73s-195.22,1.18-382.27,89.95c-120.09,57-236.84,150.11-296.31,302.25A1140.07,1140.07,0,0,0,1216,2458.82c-85.27,374,18,727.7,18,727.7h17.65c-51.48-349.9-29.19-583.41,20.29-744.84,55.41-22.76,115.81-63.45,171-118.64C1538,2228,1590,2117.53,1581.38,2043.59,1717.27,1971.21,1874.86,1931.52,1989.77,1927.89Z" transform="translate(-499.7 -955.83)"/></g><path class="cls-4" d="M2884.46,2514a939.92,939.92,0,0,0-16.68-128.87L2150,2011.34l-365.74,148.8C2101.76,2707.84,2751.59,2733.91,2884.46,2514Z" transform="translate(-499.7 -955.83)"/><path class="cls-3" d="M1661.43,3063.39c-237,15-377.44,45.3-457.57-20.44,14.18,89,30.12,143.56,30.12,143.56H1749.6S1801.28,3072.2,1661.43,3063.39Z" transform="translate(-499.7 -955.83)"/><path class="cls-5" d="M1234,3186.51H1749.6s10.74-23.77,9.17-50.46c-17.26,2.95-45,6.35-81.15,6.35-63.85,0-98.66-10.63-91.61-27.64,8.39-20.26,99.73-5.73,146.58-29.66-14.86-11.31-37.43-19.59-71.16-21.71-81.44,5.14-151.48,12.1-211.59,16.35h0c-20.37,23.47-67.5,47.49-139.09,35-51.24-8.93-84.67-36.38-105.49-63.18C1219.07,3135.43,1234,3186.51,1234,3186.51Z" transform="translate(-499.7 -955.83)"/><path class="cls-3" d="M2867.78,2385.12l-130-67.68c-230.16-43.73-539.39-78.33-547.39,49.44-24.4,389.75-328,367.55-328,367.55,37.37,143.2-36.82,297.64-201,329,104.4,7.6,97.36,70.81,88.17,123.12h780.11C2848.33,3035.72,2927.37,2682.45,2867.78,2385.12Z" transform="translate(-499.7 -955.83)"/><path class="cls-5" d="M2100.13,2870c161.57-.17,107.63-237.14,107.63-237.14l-88.66-29c-50.72,74.29-118.49,106.62-171.67,120.51C1979.1,2805,2033.34,2870.1,2100.13,2870Z" transform="translate(-499.7 -955.83)"/><path class="cls-5" d="M1871,2830.47c.69-8.53,1-17.13.93-25.77C1871.13,2813.71,1870.86,2822.27,1871,2830.47Z" transform="translate(-499.7 -955.83)"/><path class="cls-5" d="M2764.78,2881.49c-99.41-76.27-342.56,6.64-460,57.25-103,44.4-430.9,119.17-433.87-108.27-8.81,110-82,208.59-209.53,232.92,104.4,7.6,97.36,70.81,88.17,123.12h714.45S2693.53,3073.22,2764.78,2881.49Z" transform="translate(-499.7 -955.83)"/><path class="cls-5" d="M2884.46,2514a939.92,939.92,0,0,0-16.68-128.87l-130-67.68c-230.16-43.73-539.39-78.33-547.39,49.44-4.12,65.84-16.24,119.9-33.49,164.32C2460.06,2699.84,2793.47,2664.59,2884.46,2514Z" transform="translate(-499.7 -955.83)"/><path class="cls-6" d="M2532.93,3200.8H1223.27l-3-10.28c-1.4-4.79-34.39-119.2-47.32-287.93-11.93-155.85-7.86-388.44,79.34-611.45,63.81-163.17,203.92-284.33,405.19-350.36,151-49.54,281.14-50.88,286.61-50.91h.08a14.29,14.29,0,0,1,.09,28.58c-1.3,0-131.76,1.41-278.62,49.73-195.24,64.24-325.35,176.4-386.74,333.37-149.56,382.5-52.22,800.32-34,870.68H2526.49c326.17-156.35,380.28-519.88,327.29-784.3a14.29,14.29,0,0,1,28-5.62c55.17,275.3-2.34,654.48-346,817.12Z" transform="translate(-499.7 -955.83)"/><path class="cls-6" d="M1737.22,3179.38c22.67-42.9-1.11-83.3-45.87-96-3.46-.83-11.86-2.91-15.29-3.61-3.54-.41-12.27-1.66-15.88-2.12-15.59-1.86-17-24.22-2-28.15,36.58-9.21,72.74-23.87,103.34-46,97.46-70,114.53-201.67,82.2-310.82a3.62,3.62,0,0,1,6.33-3.33c12.65,16.69,20.12,36.58,24.94,56.61s6.37,40.85,6.65,61.5c1.48,137.23-82.9,241.15-216.94,269.89l-2-28.15c4.23.58,14.41,1.89,18.45,2.47,6.16,1.29,12.29,2.8,18.4,4.34,39.28,11.39,72.74,42.22,74.74,85.39a97.36,97.36,0,0,1-12.29,52.3c-9.75,16.34-34,2.48-24.76-14.27Z" transform="translate(-499.7 -955.83)"/><path class="cls-6" d="M1597.22,3066.52l62.72-17.35c21.91-4.69,25.41,28.47,3,28.43l-65-4c-4-.2-4.61-6.1-.74-7.11Z" transform="translate(-499.7 -955.83)"/><path class="cls-6" d="M1686.31,3113.1c14.94,21.19,23.42,53.54,13.57,78.41-7.33,13.71-28.5,7.1-27-8.15.09-6,3.54-10.86,5.25-16.59a73,73,0,0,0,3.58-15.92,96.18,96.18,0,0,0-1.86-34.79c-1-3.69,4.28-6.08,6.41-3Z" transform="translate(-499.7 -955.83)"/><path class="cls-6" d="M1615,3113.1c14.94,21.19,23.43,53.55,13.57,78.41-7.33,13.71-28.5,7.1-26.95-8.15.1-6,3.54-10.86,5.26-16.59a73.56,73.56,0,0,0,3.57-15.92,96.18,96.18,0,0,0-1.86-34.79c-1-3.69,4.28-6.08,6.41-3Z" transform="translate(-499.7 -955.83)"/><path class="cls-1" d="M2770.5,1174.51c106.4-133.77,356.61-166,356.61-166,27.36-40.13,60.5-45.91,75.7-30.63,13.61,13.68,14,49.33,20.22,67,29,82.22,76.46,302.94-2,520.62Z" transform="translate(-499.7 -955.83)"/><path class="cls-4" d="M3168.35,1077.23c-29.7-11.88-183.23,17.87-328.86,157.15l337,292.43C3247.53,1369.54,3200,1089.88,3168.35,1077.23Z" transform="translate(-499.7 -955.83)"/><g class="cls-2"><path class="cls-3" d="M3221.06,1565.48c78.43-217.68,31-438.4,2-520.62-6.24-17.64-6.61-53.29-20.22-67-15.2-15.28-48.34-9.5-75.7,30.63,0,0-250.21,32.22-356.61,166l29.07,25.23c146.51-125.22,338.72-155.42,338.72-155.42s25.91-48,42.33-47.66,16.72,56.85,16.72,56.85,83,159.49,17.44,506.52Z" transform="translate(-499.7 -955.83)"/></g><path class="cls-6" d="M3221.05,1579.77a14.3,14.3,0,0,1-13.44-19.13c72.72-201.82,35.44-416.18,1.94-511-2.54-7.21-4.1-16-5.74-25.37-2.27-12.87-5.38-30.51-11.13-36.28-3.43-3.45-8.36-3.8-11.91-3.46-13.36,1.23-29,13.22-41.85,32.06l-3.61,5.29-6.37.83c-2.44.31-245.75,33.11-347.26,160.71a14.29,14.29,0,0,1-22.37-17.78c100.56-126.41,319.05-164.33,359.73-170.39,17.4-23.4,38.21-37.25,59.1-39.18,13.7-1.25,26,2.92,34.8,11.76,12.07,12.14,15.76,33,19,51.48,1.44,8.14,2.79,15.83,4.55,20.81,9.58,27.13,90.9,272.41-2,530.22A14.29,14.29,0,0,1,3221.05,1579.77Z" transform="translate(-499.7 -955.83)"/><path class="cls-7" d="M2905.48,1220.11c83-88,210-125.16,231.36-110.75,30.31,20.46,50,230.69,5.17,319.31Z" transform="translate(-499.7 -955.83)"/><path class="cls-8" d="M3168.1,1292.82c-10.91,56.43-90.8-.48-105.74-41.7-13.72-37.82,11.74-86.59,41.65-94.55,37.69-10,53.8,54.7,63.73,90-2.86-67.46-15.51-126.77-30.9-137.16-21.34-14.41-148.36,22.74-231.36,110.75L3142,1428.67C3159,1395.16,3166.69,1344.27,3168.1,1292.82Z" transform="translate(-499.7 -955.83)"/><path class="cls-6" d="M3142,1443a14.29,14.29,0,0,1-12.74-20.74c18.42-36.4,27.44-102.36,24.15-176.45-3.4-76.36-17.46-118.4-24.43-124.45-19.14-7.78-135.88,26.7-213.1,108.6a14.29,14.29,0,1,1-20.79-19.61c82-87,217.57-134.54,249.75-112.79,29.7,20,36.07,124.53,37,145.26,1.8,38.18,2.74,133.33-27.12,192.34A14.29,14.29,0,0,1,3142,1443Z" transform="translate(-499.7 -955.83)"/><path class="cls-1" d="M2218.4,2442.27c-310.71-93-453.9-285.47-453.9-285.47l32.83-24.63-60.5-30.09,45.91-27.06-38.28-21s56.51-47.21,83.88-157.17c26.91-108.08,23.6-204.72,77.1-331.8,0,0-18.5-29.45-18.5-35.53s18.24-16.87,18.24-16.87-49.17-167.29-33.36-321.12c14.56-141.74,58.27-208.24,75.39-212.82,12.24-3.27,26.15,2.44,49.41,28.43,0,0,232.11-7.75,394.46,163.71,132.55-32.22,396.75-93,679.71,138,212.66,173.64,262,505.3,291.94,626.28,7.6,30.7,23.1,86.34,61.26,149.12,0,0-23.87,26.6-51.84,39.37,0,0,31.32,24.93,58.07,36.79,0,0-22.19,35.57-74.18,47.73l40.13,21.89s-211,264.5-759.44,242.61Z" transform="translate(-499.7 -955.83)"/><g class="cls-2"><path class="cls-3" d="M3070.79,1308.89c-283-231.06-547.16-170.25-679.71-138-162.35-171.46-394.46-163.71-394.46-163.71-23.26-26-37.17-31.7-49.41-28.43-17.12,4.58-60.83,71.08-75.39,212.82-15.81,153.83,33.36,321.12,33.36,321.12s-18.24,10.79-18.24,16.87,18.5,35.53,18.5,35.53c-53.5,127.08-50.19,223.72-77.1,331.8-16,64.4-42,107.25-60.86,131.72,33.29-12.72,85.36-52.78,116.5-177.32,18.24-73,10.43-206.9,75.94-287.92l-25-32.25,16.45-19.63c-82.6-263-24.49-455.52,5.31-497.47,3.56-5,23.41,26.75,23.41,26.75,279.69,11.56,403.28,175.73,403.28,175.73,219.35-42,311.07-29.63,414.53-1.37C3320.47,1357.84,3264,1962,3424,2084.29c-38.16-62.78-53.66-118.42-61.26-149.12C3332.78,1814.19,3283.45,1482.53,3070.79,1308.89Z" transform="translate(-499.7 -955.83)"/></g><path class="cls-4" d="M3396.17,2230.07,3356,2208.18c52-12.16,74.18-47.73,74.18-47.73-26.75-11.86-58.07-36.79-58.07-36.79,28-12.77,51.84-39.37,51.84-39.37q-3.59-5.91-6.91-11.72c-49.67,29.12-114.55,43.19-114.55,43.19l48.71,58-82.76,19,20.07,24.47s-189.71,109.92-693.17,95.46C2082,2298,1845.67,2153.61,1845.67,2153.61l28.27-23.72-82.39-36.63,45-24.32-88.82-17.9c-2.07,2-3.27,3-3.27,3l38.28,21-45.91,27.06,60.5,30.09-32.83,24.63s143.19,192.44,453.9,285.47l418.33,30.41C3185.18,2494.56,3396.17,2230.07,3396.17,2230.07Z" transform="translate(-499.7 -955.83)"/><path class="cls-3" d="M3276.09,2328.62c-141.76-136.37-436.91-398.62-542-491.68-24.1-21.33-59-18.61-93.63,6.72C2492.25,1952,2090.53,2246.3,1977.05,2335.8h0c64.85,39.25,145,77.64,241.35,106.47l418.33,30.41c319,12.73,523.8-71.42,639.36-144.06Z" transform="translate(-499.7 -955.83)"/><path class="cls-5" d="M3276.09,2328.62c-23.11-22.24-50.32-47.83-80.1-75.48-101.42,30.64-292.09,68.48-600.61,59.62-214.34-6.16-380.34-34.91-501.06-66.33-49.91,37.44-91.2,68.82-117.27,89.37h0c64.85,39.25,145,77.64,241.35,106.47l418.33,30.41c319,12.73,523.8-71.42,639.36-144.06Z" transform="translate(-499.7 -955.83)"/><path class="cls-6" d="M2214.3,2456c-175.19-53.6-343-148.57-461.27-290.63l-8.69-11.27c6.47-4.9,37.11-27.8,44.42-33.32L1791,2145c-14.47-7.39-69.86-34.62-84.08-41.83l22.69-13.37,45.9-27.06.39,24.84c-10-5.78-46-25-56.16-30.79l15.59-13.69c60.89-59.44,81.64-145.92,94.71-227.46,13-86.13,27.1-175.09,62.27-256.09l1.06,13.14c-3-4.87-5.87-9.61-8.72-14.54-17.3-29-17.66-38.44,13.29-57.76l-6.44,16.33c-40.13-150.81-55.35-313.1-5.54-463.77,9.35-26,19.15-50.63,37.18-72.9a57.91,57.91,0,0,1,13.09-11.87c27.36-15,54.23,10.5,71.06,29.47l-11.12-4.75c38-.32,75,4.39,112.14,11.65,110.18,21.9,215.59,74.35,293.18,156.52l-13.75-4.06c244-65.67,467.74-33,669.88,123.35,137.42,101.51,214.55,262.43,262.56,422,19.4,64,34.11,129.22,48.22,193.83,7.08,32.38,14.59,63.64,25.93,93.85,12.25,33.63,28.56,65.72,47.47,96.09l-7.15,7.75c-16.67,17.6-34.34,32.2-56.53,42.83l3-24.18c21.24,16.8,45.32,31.65,70.21,41.76l-8.92,13.77c-19.35,27.95-50.39,46.24-83.05,54.08l3.59-26.46,40.12,21.89,15.19,8L3407.34,2239c-69.31,79.94-163.73,133.95-260.67,173.39-96.82,38.55-199.86,60.24-303.46,69.31-68.83,6.46-138.44,6.84-206.62-5.43a3.61,3.61,0,0,1,.28-7.14c135.72-11.8,271.26-15.82,402-55.36,127.22-37.44,253.44-96,346.18-192.59l4.33,21.45-40.13-21.89-31.68-17.28,35.27-9.17c25.48-6.12,49.76-20,65.31-41.39l6.33,20.63a242.47,242.47,0,0,1-32-17.87c-15.39-9.63-32.86-23.73-47.37-35.1l21.18-9.88c17.28-8.1,33.93-21.92,47.13-35.91l-1.57,17c-35.64-57.5-58.11-123.76-71.31-189.37-47-219.22-112.86-458.84-300.27-599.34-195.61-151.13-409.76-181.77-645.74-118.25l-8,2-5.76-6c-98.19-103.44-242.27-157.6-383.62-159.26l-6.73.12c-8.6-9.66-19.84-21.91-29.36-27-3.68-2.08-6.58-2.73-10-2-17.69,16.21-29.44,45.36-38,69.69-15.91,46.9-24.28,97.17-28.33,147.1-6.47,100.08,8.42,202.57,34.27,299.32l3,10.62c-5.31,3.45-16,9.18-20.36,13.56a14,14,0,0,0-1.44,1.46c-.09.11-.14.19,0-.07a8.21,8.21,0,0,0,.88-2.33,10.67,10.67,0,0,0,.06-4.24c-.07-.29,0,0,.1.25,5.21,12.1,13.31,24.46,20.31,35.87a708.25,708.25,0,0,0-41.09,128.7c-25.69,116.5-25.23,248-102.71,346.28a192,192,0,0,1-24,26.27l-2.3-23.49c14.84,8,46.07,25.37,60.31,33.06-16.9,9.92-51,30.07-67.55,39.82l-.89-25.11,60.5,30.1,20.74,10.32c-13.81,10.34-37.92,28.47-51.37,38.53l2.89-20c6.22,8.07,13.73,16.7,21.1,24.76,52.88,57.3,114.93,105.76,181.21,146.73,76.11,46.88,158.64,83.06,244.23,108.82,17.89,5.69,10.09,32.4-8.2,27.38Z" transform="translate(-499.7 -955.83)"/><path class="cls-1" d="M2553,1141.83c74.42-4.9,158.35-43.46,178.61-33.39,16.12,8,1.22,52.69-37.69,85.53,0,0,33.07,1.31,34.65,12.16,3.65,24.93-59.58,61.67-59.58,61.67Z" transform="translate(-499.7 -955.83)"/><g class="cls-2"><path class="cls-3" d="M2731.58,1108.44c-20.26-10.07-104.19,28.49-178.61,33.39l44,47.8h0c59.2-13.29,112.7-68.63,128.51-66.8,5.66.65,8.85,5.3,10.63,11C2739.59,1121.36,2738.25,1111.75,2731.58,1108.44Z" transform="translate(-499.7 -955.83)"/></g><path class="cls-6" d="M2552,1127.57c46.45-3.2,90.87-18.21,136.64-29.74,18.07-3.57,42.72-12.32,57.35,4.33,16.43,23.2-3,55.73-16.27,74.47a170.79,170.79,0,0,1-26.65,28.26l-8.65-25.2c15.52,1.7,33.26,3.13,43.67,16.86,8.28,13.45-2.15,30.14-11,39-16.6,16.18-35.57,26.51-56.33,35.32-3.73,1.51-6.77-3.54-3.68-6.11,17.31-15.62,40.35-32.28,49.11-53.74a4.86,4.86,0,0,0,.06-2.93c-.31-1,.14,2,.72,2.66.51.92.7,1,.48.94a29.79,29.79,0,0,0-4-1.22c-13-2.72-42.55-3.22-56.17-4.24,14.79-12.86,38.48-30.64,49.58-46.67,8.18-11.4,16.84-25.71,16.82-38.85-.08-1.23-.49-1.6.16-.59a4.29,4.29,0,0,0,1.45,1.11c.4.19.23,0-.33,0-9.44-.7-19.85,2.21-29.48,4.37-46.16,11.7-92.77,27.2-141.53,30.49-18.77.83-20.76-26.82-1.88-28.52Z" transform="translate(-499.7 -955.83)"/><path class="cls-6" d="M2489.44,1613.73c-41.76,19.44-95.72,28.4-136.89,8.27-45.86-22.42-54.17-69.74-49.25-88.53,0,0,41.64,33.76,72.95,47.29S2489.44,1613.73,2489.44,1613.73Z" transform="translate(-499.7 -955.83)"/><path class="cls-6" d="M2776.62,1616.56c44.65,11.34,99.33,10.11,136-17.32,40.9-30.55,40.26-78.6,31.94-96.14,0,0-34.64,40.91-62.89,60S2776.62,1616.56,2776.62,1616.56Z" transform="translate(-499.7 -955.83)"/><path class="cls-4" d="M2425.74,1786.59l465.61-17.42C2724,1591.32,2573.49,1598.62,2425.74,1786.59Z" transform="translate(-499.7 -955.83)"/><path class="cls-4" d="M2034.47,1423.81c-19.46,23.41-50.47,61.11-50.47,61.11-73.57-146.69-54.88-360.57-15.17-402.07,25.2-26.34,201.53-9.58,306.42,108.08C2112.45,1214.19,2053.92,1400.4,2034.47,1423.81Z" transform="translate(-499.7 -955.83)"/><path class="cls-3" d="M2106.52,1799,2503,1783.16c3.5,58.86-41.1,188-190.92,192.14C2179.18,1979,2113.82,1872.24,2106.52,1799Z" transform="translate(-499.7 -955.83)"/><path class="cls-6" d="M2305.19,1989.68c-141.21,0-205.51-115.26-212.89-189.3l-1.51-15.09,425.6-17,.83,14c2.32,38.93-13.68,98.21-54.64,142.88-37.07,40.45-89,62.71-150.15,64.39C2310,1989.65,2307.57,1989.68,2305.19,1989.68ZM2123,1812.61c12.88,63.39,69.09,148.49,182.3,148.49q3.12,0,6.3-.09c54-1.48,97.7-20,129.88-55.13,30.33-33.09,44.88-76.19,47.06-107.85Z" transform="translate(-499.7 -955.83)"/><path class="cls-6" d="M2191.12,1795.59c0,35,32.79,101.91,122.84,94.28,76.5-6.49,108.13-70.84,102.92-103.28Z" transform="translate(-499.7 -955.83)"/><path class="cls-3" d="M3156.3,1737.25l-345.67,41c2.43,35.57,41.26,159.35,186.67,152.62C3128.63,1924.83,3168.16,1798.36,3156.3,1737.25Z" transform="translate(-499.7 -955.83)"/><path class="cls-6" d="M2985.94,1945.47c-147.58,0-187.11-130.26-189.57-166.2l-.92-13.56,372.35-44.21,2.53,13c7.07,36.46-2.28,97.29-39.54,144.66-31.95,40.63-77.89,63.45-132.83,66C2993.88,1945.38,2989.86,1945.47,2985.94,1945.47Zm-159-154.73c9.29,41.94,50.58,131.42,169.67,125.9,46.4-2.15,85-21.21,111.69-55.12,26.36-33.51,37.13-77.07,35.5-108.4Z" transform="translate(-499.7 -955.83)"/><path class="cls-6" d="M2879.94,1766.06c25.54,134.1,216.16,111.85,200.22-23.77" transform="translate(-499.7 -955.83)"/><path class="cls-7" d="M2004.37,1440.22c57.15-77.82,161.13-181.8,278.48-222.54-86.95-97.28-252.79-119.78-280.84-105.19S1943,1301,2004.37,1440.22Z" transform="translate(-499.7 -955.83)"/><path class="cls-8" d="M2002,1112.49c-14.72,7.66-30.25,59.24-32.81,126.64,2.51-10.7,18.3-70.09,46.11-81,38.15-15,108.89,23.72,110.72,65.22,2,45.91-81.84,115.68-112.18,129.89-14.81,6.94-25.59,8-39.8-21.61,5.26,36.35,14.86,73.59,30.32,108.63,57.15-77.82,161.13-181.8,278.48-222.54C2195.9,1120.4,2030.06,1097.9,2002,1112.49Z" transform="translate(-499.7 -955.83)"/><path class="cls-6" d="M2004.37,1454.51c-.51,0-1,0-1.55-.08a14.3,14.3,0,0,1-11.53-8.44c-61.45-139.35-36-325.31,4.12-346.17,37.62-19.59,210.37,10.19,298.09,108.34a14.29,14.29,0,0,1-6,23c-110.76,38.45-212.95,137.57-271.65,217.5A14.29,14.29,0,0,1,2004.37,1454.51Zm24.13-332c-9.74,0-16.69,1-19.89,2.62-6.65,4.8-21.58,42.89-24.88,108.53-1.89,37.59-.78,107.58,24.56,177.86,58.82-74.13,149.52-158.32,249.12-199.48C2184.87,1144.08,2074.92,1122.55,2028.5,1122.55Z" transform="translate(-499.7 -955.83)"/><path class="cls-6" d="M2704.67,1888l9.87,52.84c3,18.76-24.38,23.9-28.34,5.3a15,15,0,0,1-.2-3.83l4.4-53.57c.71-8.31,12.76-8.85,14.27-.74Z" transform="translate(-499.7 -955.83)"/><path class="cls-6" d="M2701.18,1904.16c-17.07,3.35-49.4-21.89-42.64-34.89s72.59-12.54,75.25-2.51S2718.21,1900.81,2701.18,1904.16Z" transform="translate(-499.7 -955.83)"/><g class="cls-2"><path class="cls-3" d="M2700.27,1881.91c-10.72.28-27-5.75-23.32-11.3s38.47-5.7,41.53-1.39C2721,1872.81,2709.73,1881.67,2700.27,1881.91Z" transform="translate(-499.7 -955.83)"/></g><path class="cls-1" d="M2025.65,2508.12c60.8-127.23,154.2-152.54,240.78-142.28,80.87,9.57,139.7,57.91,151.1,142.28,9.3,68.78-6.38,133.39-48.34,151.17a114.5,114.5,0,0,1-51.53,8.67,110,110,0,0,1-40.89,4.33s-44.39,77.83-169.34,62C1995,2720.08,1934.6,2607.53,1912,2517.24Z" transform="translate(-499.7 -955.83)"/><path class="cls-4" d="M2107.43,2734.31c125,15.81,169.34-62,169.34-62a110,110,0,0,0,40.89-4.33,114.5,114.5,0,0,0,51.53-8.67c35.53-15.06,52.21-63.69,50.84-120-7.23,61.84-56,108.6-88.22,40-11,54.72-68.87,40.58-85.87-2.58-27.24,50.92-89,41.34-113.36-57.51-43.39,51-32.45,148.79-32.45,148.79s-98.12,8-188.18-150.72C1934.6,2607.53,1995,2720.08,2107.43,2734.31Z" transform="translate(-499.7 -955.83)"/><path class="cls-3" d="M2317.66,2668a114.5,114.5,0,0,0,51.53-8.67c42-17.78,57.64-82.39,48.34-151.17a182.3,182.3,0,0,0-12-45.47c-53.67-92.71-239.5-98.86-269.83,37.72-24.07,103.1,18.25,174.65,92.81,160.29,0,0,19.68,10.26,48.26,11.63A110,110,0,0,0,2317.66,2668Z" transform="translate(-499.7 -955.83)"/><path class="cls-5" d="M2369.19,2659.29c35.53-15.06,52.21-63.69,50.84-120-7.23,61.84-56,108.6-88.22,40-11,54.72-68.87,40.58-85.87-2.58-27.24,50.92-89,41.34-113.36-57.51-.25.3-.48.62-.73.92-14.55,92.33,27,154,96.66,140.57,0,0,19.68,10.26,48.26,11.63a110,110,0,0,0,40.89-4.33A114.5,114.5,0,0,0,2369.19,2659.29Z" transform="translate(-499.7 -955.83)"/><g class="cls-2"><path class="cls-3" d="M2384,2650.28c30.77-25.33,41.68-82.16,33.57-142.16-11.4-84.37-70.23-132.71-151.1-142.28-86.57-10.26-180,15-240.78,142.28h0c45.3-55.64,131.29-120.85,228-109.45C2427.44,2419.15,2423.66,2571.12,2384,2650.28Z" transform="translate(-499.7 -955.83)"/></g><path class="cls-6" d="M2022.43,2506.58c23.6-68.44,77.12-131.26,149.91-149.86,109.58-28.13,234.2,14.79,257.11,136.57,8.41,48,8.35,103.91-18.13,147a87.42,87.42,0,0,1-26.93,27.21c-16.49,9.44-35.58,14-54.41,14.91a104.15,104.15,0,0,1-13.85-.23l6.26-.72c-15.27,4.82-30.85,6.18-46.73,5.09l13.52-7.16c-37,60.29-114.72,80.49-181.34,71.55-44.91-5.1-87.61-27.3-119-59.35-45.5-46.17-75.14-108.77-80.35-173.46a3.64,3.64,0,0,1,6.92-1.78c17.45,38.08,34.47,75,57.09,107.9,21,32.27,50.35,61,84.78,78.26,66.52,29.9,160.52,24.06,207.09-37.28l5.35-7.73,8.17.56c12.36.87,25.5-.3,37.23-4.29h4.09a101.55,101.55,0,0,0,44.36-7.59l3.94-2c.65-.34,1.34-.63,2-1,1.64-1.35,3.83-2.58,5.48-3.94,30.87-28.21,32.76-79,29.61-118.57-4-51.06-29-97.39-75.85-120.81-38.12-19.18-84.95-23.68-127.71-18.76-44,5.29-83.79,25.61-116.12,56.56-21.55,20.77-39.59,45.69-56,72.08-2.07,3.69-8,.84-6.44-3.08Z" transform="translate(-499.7 -955.83)"/><path class="cls-6" d="M2139.21,2501.07c0,43.16-1.2,120,40.24,143,13.36,7.23,33.62,5.61,51.32,2.16a95.6,95.6,0,0,0,24.47,8.78,141.51,141.51,0,0,0,22.39,3,14.29,14.29,0,0,1-1.49,28.54,169.62,169.62,0,0,1-27.24-4.05c-9.57-2.39-18.08-5-27.1-9.64l10.29,1.25c-32.56,12.19-73.47,5.33-93.63-25.46-28.67-43.82-23.08-102.53-6.26-149,1.44-3.7,7.16-2.61,7,1.41Z" transform="translate(-499.7 -955.83)"/><path class="cls-6" d="M2333.19,2557.4c8.26,28.41,11.27,57.9,7.37,87.47-2,14.29-9.77,44.89-30.08,33.91-14.48-10.35-.3-27.41,3.5-40.33,5.86-16.58,9-34.52,10.69-52.28.84-9.16,1.41-18.55,1.48-27.76,0-4,5.94-4.9,7-1Z" transform="translate(-499.7 -955.83)"/><path class="cls-6" d="M2247.78,2549.29a260.56,260.56,0,0,1,6.52,58.29c-.28,17.16-4.45,79.8-33.49,64-15-11.92,2.66-27.38,6.69-40.4,6.45-16.64,9.89-34.95,11.69-53a266.91,266.91,0,0,0,1.51-28.1c-.06-4.19,6.19-4.93,7.08-.83Z" transform="translate(-499.7 -955.83)"/><polyline class="cls-9" points="2142.55 1012.59 2200.67 990.27 2251.77 1001.92"/></svg>